<svg xmlns="http://www.w3.org/2000/svg" height="30" width="30" viewBox="0 0 30 30"><path fill="#b3b3b3" d="M30 24.141q0 1.01-.707 1.717l-3.434 3.434Q25.152 30 24.14 30q-1.01 0-1.717-.707L15 21.87l-7.425 7.424Q6.868 30 5.858 30t-1.717-.707L.707 25.86Q0 25.152 0 24.141q0-1.01.707-1.717L8.13 15 .707 7.576Q0 6.87 0 5.86t.707-1.717L4.14.708Q4.848 0 5.858 0t1.717.708L15 8.132 22.424.708Q23.13 0 24.14 0q1.01 0 1.717.708l3.434 3.434Q30 4.849 30 5.859t-.707 1.717L21.87 15l7.424 7.424q.707.707.707 1.717z"/></svg>