<svg xmlns="http://www.w3.org/2000/svg" height="63.999" width="307.2" viewBox="0 0 287.99986 60.000253"><g stroke="#002f78"><path d="M115 147.36l20-40 10 25 10-15 15 19 35-34" stroke-width="3" fill="none" transform="matrix(1.00418 0 0 1.09834 77.5 -107.113)"/><path style="text-decoration-color:#000;isolation:auto;mix-blend-mode:normal;block-progression:tb;text-decoration-line:none;text-decoration-style:solid;text-indent:0;text-transform:none" d="M633.02 80.798c-2.189 0-3.995 1.957-3.995 4.328s1.806 4.328 3.995 4.328 3.995-1.957 3.995-4.328-1.806-4.328-3.995-4.328zm0 3.246c.57 0 .999.465.999 1.082s-.43 1.082-.999 1.082c-.57 0-.999-.465-.999-1.082s.43-1.082.999-1.082zm19.92 7.821c-2.189 0-3.995 1.957-3.995 4.328s1.806 4.328 3.995 4.328 3.995-1.957 3.995-4.328-1.806-4.328-3.995-4.328zm0 3.246c.57 0 .999.465.999 1.082s-.43 1.082-.999 1.082-.999-.465-.999-1.082.43-1.082.999-1.082zm49.05-19.43c-2.189 0-3.995 1.957-3.995 4.328s1.806 4.328 3.995 4.328 3.995-1.957 3.995-4.328-1.806-4.328-3.995-4.328zm0 3.246c.57 0 .999.465.999 1.082s-.43 1.082-.999 1.082c-.57 0-.999-.465-.999-1.082s.43-1.082.999-1.082zm-88.9 44.083c-2.189 0-3.995 1.957-3.995 4.328s1.806 4.328 3.995 4.328 3.995-1.957 3.995-4.328-1.806-4.328-3.995-4.328zm0 3.246c.57 0 .999.465.999 1.082s-.43 1.082-.999 1.082-.999-.465-.999-1.082.43-1.082.999-1.082zm30.06-19.796c-2.189 0-3.995 1.957-3.995 4.328s1.806 4.328 3.995 4.328 3.995-1.957 3.995-4.328-1.806-4.328-3.995-4.328zm0 3.246c.57 0 .999.465.999 1.082s-.43 1.082-.999 1.082-.999-.465-.999-1.082.43-1.082.999-1.082zm24.82.074c-2.189 0-3.995 1.957-3.995 4.328s1.806 4.328 3.995 4.328 3.995-1.957 3.995-4.328-1.806-4.328-3.995-4.328zm0 3.246c.57 0 .999.465.999 1.082s-.43 1.082-.999 1.082-.999-.465-.999-1.082.43-1.082.999-1.082z" transform="matrix(1.0054 0 0 1.0151 -423.37 -75.236)" stroke-linejoin="round" stroke-linecap="square" stroke-width="3.119" fill="#002f78" color="#000" white-space="normal"/></g><g fill="#002f78"><path d="M170.87 8.229q-.908-.928-.908-2.246t.909-2.222q.933-.928 2.258-.928 1.35 0 2.26.928.932.903.932 2.197 0 1.343-.933 2.27-.908.904-2.234.904-1.35 0-2.283-.903zm6.138 21.509q-1.153.024-2.43.024t-2.185-.024q-3.854 0-5.647-1.953-1.792-1.978-1.792-6.348 0-7.959 8.2-7.959 7.783 0 8.323 6.787.098 1.416.098 2.075v7.666q0 8.79-12.668 8.74l-5.672-.024v-4.614h5.966q7.807-.024 7.807-3.93v-.44zm.295-6.348q0-3.71-.908-4.638-1.056-1.001-3.192-1.001-4.296 0-4.296 3.906 0 3.564 4.272 3.564 1.988 0 4.075-.22.049-1.098.049-1.61z"/><path d="M152.237 49.125q-.908-.903-.908-2.222t.908-2.246q.933-.903 2.259-.903 1.35 0 2.258.903.467.464.688 1.026.245.561.245 1.196 0 1.343-.933 2.246-.908.928-2.234.928-1.35 0-2.283-.928zm-7.954 0q-.909-.903-.909-2.222t.909-2.246q.932-.903 2.258-.903 1.35 0 2.259.903.933.928.933 2.222 0 1.343-.933 2.246-.908.928-2.234.928-1.35 0-2.283-.928zm12.299-20.093q0 5.102 6.457 5.102h.638v4.615h-2.332q-4.125 0-6.58-2.686l-.49-.488-.443.513q-2.406 2.66-6.604 2.66h-5.524v-4.614h4.174q6.187 0 6.187-5.102V22.83h4.517v6.2z"/><path d="M116.317 19.459q-.908-.928-.908-2.246t.908-2.222q.933-.928 2.259-.928 1.35 0 2.258.904.467.464.688 1.025.245.562.245 1.196 0 1.343-.933 2.27-.908.904-2.234.904-1.35 0-2.283-.903zm-7.954 0q-.909-.928-.909-2.246t.909-2.222q.932-.928 2.258-.928 1.35 0 2.259.928.933.903.933 2.197 0 1.343-.933 2.27-.908.904-2.234.904-1.35 0-2.283-.903zm-10.705 8.227q0 6.446 4.836 6.446h16.326l6.63-.073q6.431-.098 6.407-5.689v-5.42h4.493v5.469q0 5.688 4.984 5.688h.785v4.615h-.835q-5.425 0-7.07-3.98l-.197-.44q-2.946 4.444-9.623 4.444h-22.022q-9.108 0-9.108-11.108v-4.931h4.394v4.98zm-35.754 7.399c-1.915 2.441-4.19 3.662-6.825 3.662h-2.504v-4.614h.81c4.043 0 6.064-1.742 6.064-5.225l.025-5.981h4.37v6.103c.016 3.386 1.464 5.078 4.345 5.078 2.815.017 4.215-1.644 4.198-4.98V22.95h4.37v6.152c.017 3.337 1.53 5.005 4.542 5.005 2.39.017 3.585-1.644 3.585-4.98v-7.251h4.394v7.275c-.016 6.397-2.61 9.595-7.782 9.595-3.765 0-6.122-1.473-7.07-4.42-.917 2.947-2.922 4.42-6.016 4.42-3.093 0-5.262-1.22-6.506-3.662zm2.846-22.852v-3.1L76.878 4.2v3.1z"/><path d="M37.86 15.675c-.605-.619-.908-1.367-.908-2.246 0-.88.303-1.62.908-2.222a3.085 3.085 0 0 1 2.259-.928c.9 0 1.653.31 2.258.928.622.602.933 1.335.933 2.197 0 .896-.31 1.652-.933 2.27-.605.603-1.35.904-2.234.904-.9 0-1.66-.3-2.283-.903zm8.176 13.354c0 3.402 2.152 5.102 6.456 5.102h.639v4.615h-2.333c-2.75 0-4.943-.895-6.58-2.686l-.49-.488-.442.513c-1.604 1.774-3.806 2.66-6.604 2.66h-5.524v-4.614h4.173c4.125 0 6.187-1.7 6.187-5.102v-6.201h4.517z"/><path d="M14.128 45.315c-.606-.602-.908-1.343-.908-2.222s.302-1.627.908-2.246c.622-.602 1.375-.903 2.259-.903.9 0 1.653.3 2.258.903.622.619.933 1.36.933 2.222 0 .895-.31 1.644-.933 2.246-.605.618-1.35.928-2.234.928-.9 0-1.661-.31-2.283-.928zm7.88-17.7c0-.326-.286-.619-.859-.879l-5.352-2.466c-1.358-.635-2.627-.952-3.805-.952a5.565 5.565 0 0 0-3.437 1.148l-3.83 2.88L1.828 24.1l3.584-2.978c2.014-1.693 4.141-2.54 6.383-2.54 1.588 0 3.225.424 4.91 1.27l7.881 3.906c2.177 1.075 3.266 2.271 3.266 3.59v3.466c-1.293.114-2.414.269-3.364.464-.31 1.888 1.612 2.832 5.77 2.832h1.424v4.614h-.467c-6.449 0-9.951-2.156-10.507-6.47C9.79 33.93 4.324 37.699 4.308 43.559c-.033 6.103 4.451 9.147 13.453 9.13h10.164v4.468H17.467c-6.35-.016-10.852-1.285-13.504-3.808-2.7-2.572-4.026-5.689-3.977-9.35.098-9.083 7.44-14.544 22.022-16.383z"/></g></svg>