<svg xmlns="http://www.w3.org/2000/svg" height="34.133" width="34.133" viewBox="0 0 31.999999 31.999999"><path d="M21.23 23.34l2.625-12.375q.16-.786-.196-1.125-.34-.34-.911-.125l-15.43 5.946q-.517.197-.713.447-.179.25-.036.482.143.214.571.34l3.947 1.231 9.16-5.767q.375-.25.572-.108.125.09-.072.268l-7.41 6.697-.286 4.071q.41 0 .804-.393l1.928-1.857 4 2.947q1.143.642 1.447-.68zm9.5-13.554Q31.998 12.75 31.998 16t-1.268 6.215-3.41 5.107q-2.144 2.143-5.108 3.41Q19.248 32 15.998 32t-6.214-1.268q-2.965-1.267-5.108-3.41-2.142-2.143-3.41-5.107Q-.002 19.25-.002 16t1.268-6.214q1.268-2.964 3.41-5.107 2.143-2.143 5.108-3.41Q12.748 0 15.998 0t6.214 1.268q2.964 1.268 5.107 3.41 2.143 2.144 3.411 5.108z" fill="#fff"/></svg>