<svg xmlns="http://www.w3.org/2000/svg" width="37" height="30" viewBox="0 0 37.000038 30"><path d="M37 3.563q-1.573 2.297-3.803 3.914.023.328.023.984 0 3.047-.892 6.082-.892 3.035-2.712 5.824-1.82 2.79-4.331 4.934-2.512 2.144-6.057 3.422Q15.683 30 11.645 30 5.282 30 0 26.602q.822.094 1.831.094 5.283 0 9.415-3.235-2.466-.047-4.414-1.511-1.949-1.465-2.677-3.739.775.117 1.433.117 1.01 0 1.995-.258-2.63-.539-4.355-2.613-1.725-2.074-1.725-4.816v-.094q1.596.89 3.427.96-1.55-1.03-2.465-2.695-.915-1.664-.915-3.609 0-2.062 1.032-3.82 2.841 3.492 6.914 5.59 4.074 2.097 8.722 2.332-.188-.891-.188-1.735 0-3.14 2.219-5.355Q22.468 0 25.614 0q3.286 0 5.54 2.39 2.56-.492 4.813-1.827-.869 2.695-3.334 4.171Q34.817 4.5 37 3.563z" fill="#fff"/></svg>